<svg xmlns="http://www.w3.org/2000/svg" width="40" height="44.5" viewBox="0 0 40 44.5">
  <g transform="translate(-735 -4848.5)">
    <path d="M67.079,0H56.34l-.546.546L48.248,8.092l-.546.546V24.967A5.039,5.039,0,0,0,52.735,30H67.079a5.038,5.038,0,0,0,5.032-5.033V5.033A5.038,5.038,0,0,0,67.079,0Zm3.169,24.967a3.169,3.169,0,0,1-3.169,3.169H52.735a3.169,3.169,0,0,1-3.169-3.169V9.41h4.905a2.641,2.641,0,0,0,2.641-2.641V1.864h9.968a3.169,3.169,0,0,1,3.169,3.169V24.967Z" transform="translate(693.575 4848.5)"/>
    <text transform="translate(735 4892)" font-size="10" font-family="YuGo-Bold, YuGothic" font-weight="700"><tspan x="0" y="0">カテゴリ</tspan></text>
  </g>
</svg>
