<svg xmlns="http://www.w3.org/2000/svg" width="30" height="44.5" viewBox="0 0 30 44.5">
  <g transform="translate(-543 -4848.5)">
    <path d="M65.437,9.447h0L56.371.949a3.509,3.509,0,0,0-4.8,0l-9.065,8.5a3.509,3.509,0,0,0-1.109,2.56V26.491A3.509,3.509,0,0,0,44.906,30h18.13a3.509,3.509,0,0,0,3.509-3.509V12.008A3.511,3.511,0,0,0,65.437,9.447ZM63.751,26.491a.717.717,0,0,1-.715.715h-5.96V21h-6.21v6.209h-5.96a.714.714,0,0,1-.715-.715V12.008a.711.711,0,0,1,.226-.521l9.065-8.5a.714.714,0,0,1,.977,0l9.066,8.5h0a.715.715,0,0,1,.226.522V26.491Z" transform="translate(503.603 4848.5)" />
    <text transform="translate(543 4892)" font-size="10" font-family="YuGo-Bold, YuGothic" font-weight="700"><tspan x="0" y="0">ホーム</tspan></text>
  </g>
</svg>
