<svg xmlns="http://www.w3.org/2000/svg" width="174.56" height="31.617" viewBox="0 0 174.56 31.617">
  <path id="パス_9" data-name="パス 9" d="M9.12.032a7.27,7.27,0,0,0,7.456-7.68A7.334,7.334,0,0,0,9.12-15.3,7.283,7.283,0,0,0,1.728-7.648C1.728-3.04,4.864.032,9.12.032Zm0-1.7c-3.072,0-5.536-2.4-5.536-5.984,0-3.616,2.464-5.984,5.536-5.984s5.568,2.368,5.568,5.984C14.688-4.064,12.192-1.664,9.12-1.664ZM25.44-.384a.876.876,0,0,0,.928-.864.868.868,0,0,0-.96-.864c-.448.032-.576.032-1.056.032a.529.529,0,0,1-.544-.576c0-1.536-.032-2.976-.032-4.192s.032-2.208.032-2.816c.064-2.368,2.464-3.808,4.672-3.808h.192a.873.873,0,0,0,.9-.9.89.89,0,0,0-1.056-.9,6.051,6.051,0,0,0-4.544,1.984.277.277,0,0,1-.192.1c-.032,0-.1,0-.1-.1-.192-1.152-1.248-1.7-2.528-1.7h-.9a.863.863,0,0,0-.9.928.847.847,0,0,0,.864.9h.032a5.714,5.714,0,0,1,.672-.032c.8.032,1.056.608,1.056,1.472v2.5c0,2.144-.032,4.1-.064,6.56a.507.507,0,0,1-.512.576c-.512,0-.672-.032-1.088-.032h-.032a.882.882,0,0,0-.928.9.827.827,0,0,0,.96.832c.736-.032,1.6-.064,2.464-.064s1.792.032,2.624.064Zm21.824-1.76c-.16,0-.32.032-.544.032-1.184-.1-1.184-1.248-1.184-4.384,0-1.824.032-3.712.064-6.048a2.386,2.386,0,0,0-2.688-2.432h-.8a.863.863,0,0,0-.928.9.855.855,0,0,0,.9.9c.416,0,.352-.032.64-.032.8.032,1.024.608,1.024,1.44v5.888A4.654,4.654,0,0,1,39.008-1.6c-1.792,0-3.488-1.12-3.648-3.744-.032-.608-.064-2.08-.064-3.712,0-1.152.032-2.4.032-3.456a2.344,2.344,0,0,0-2.656-2.464H31.84a.907.907,0,0,0-.928.928.831.831,0,0,0,.9.864h.032c.32,0,.352-.032.512-.032.448,0,1.12.1,1.12,1.44,0,5.792.032,6.432.032,6.656A4.976,4.976,0,0,0,38.784.064a6.17,6.17,0,0,0,4.9-2.208c.064-.064.1-.1.16-.1a.1.1,0,0,1,.1.1C44.288-.672,45.152-.32,46.528-.256c.352,0,.448-.032.736-.032a.891.891,0,0,0,.864-.928.85.85,0,0,0-.832-.928Zm10.656-11.1a.831.831,0,0,0,.9-.864.824.824,0,0,0-.9-.832H55.072c-.416,0-.48,0-.48-.352,0,0,.064-2.56.064-3.488a.907.907,0,0,0-.928-.992.907.907,0,0,0-.928.928v.8c0,1.12-.032,2.656-.032,2.784,0,.288-.064.32-.352.32H50.56a.824.824,0,0,0-.9.832.831.831,0,0,0,.9.864h1.888c.224,0,.32.032.32.352v.512c0,1.568-.064,5.472-.064,7.52,0,1.408,0,4.9,4.1,4.9,1.28,0,2.048-.16,2.048-.992a.792.792,0,0,0-.768-.832h-.128c-.32.032-.608.064-.9.064-2.5,0-2.56-1.7-2.56-4.192,0-2.368.1-5.664.1-6.88,0-.384,0-.448.512-.448ZM74.592-.32a.866.866,0,0,0,.864-.9.812.812,0,0,0-.544-.8c-1.28-.448-1.5-1.216-1.5-3.552,0-1.216.064-2.88.16-3.936a8.689,8.689,0,0,0,.032-.9c0-3.584-2.016-4.9-4.992-4.9-2.752,0-5.44,1.376-5.44,2.592a.867.867,0,0,0,.9.864.892.892,0,0,0,.672-.32A5.04,5.04,0,0,1,68.48-13.7c2.592,0,3.328,1.376,3.328,3.136,0,.16-.032.352-.032.512,0,.224-.128.32-.512.384a51.486,51.486,0,0,0-5.92,1.312c-2.368.736-3.424,2.368-3.424,3.968C61.92-2.176,63.872.032,67.1.032a5.914,5.914,0,0,0,4.864-2.464.171.171,0,0,1,.128-.1c.064,0,.1.064.128.16A2.723,2.723,0,0,0,74.592-.32Zm-7.52-1.344c-2.144,0-3.424-1.344-3.424-2.688,0-2.24,2.656-2.88,7.68-3.68h.1c.224,0,.32.1.32.352v.416C71.744-2.336,68.7-1.664,67.072-1.664Zm16.7,1.28a.876.876,0,0,0,.928-.864.868.868,0,0,0-.96-.864c-.448.032-.576.032-1.056.032a.529.529,0,0,1-.544-.576c0-1.536-.032-2.976-.032-4.192s.032-2.208.032-2.816c.064-2.368,2.464-3.808,4.672-3.808h.192a.873.873,0,0,0,.9-.9.89.89,0,0,0-1.056-.9A6.051,6.051,0,0,0,82.3-13.28a.277.277,0,0,1-.192.1c-.032,0-.1,0-.1-.1-.192-1.152-1.248-1.7-2.528-1.7h-.9a.863.863,0,0,0-.9.928.847.847,0,0,0,.864.9h.032a5.714,5.714,0,0,1,.672-.032c.8.032,1.056.608,1.056,1.472v2.5c0,2.144-.032,4.1-.064,6.56a.507.507,0,0,1-.512.576c-.512,0-.672-.032-1.088-.032h-.032a.882.882,0,0,0-.928.9.827.827,0,0,0,.96.832c.736-.032,1.6-.064,2.464-.064s1.792.032,2.624.064Zm19.3.064a.866.866,0,0,0,.864-.9.812.812,0,0,0-.544-.8c-1.28-.448-1.5-1.216-1.5-3.552,0-1.216.064-2.88.16-3.936a8.689,8.689,0,0,0,.032-.9c0-3.584-2.016-4.9-4.992-4.9-2.752,0-5.44,1.376-5.44,2.592a.867.867,0,0,0,.9.864.892.892,0,0,0,.672-.32A5.04,5.04,0,0,1,96.96-13.7c2.592,0,3.328,1.376,3.328,3.136,0,.16-.032.352-.032.512,0,.224-.128.32-.512.384a51.486,51.486,0,0,0-5.92,1.312C91.456-7.616,90.4-5.984,90.4-4.384c0,2.208,1.952,4.416,5.184,4.416a5.914,5.914,0,0,0,4.864-2.464.171.171,0,0,1,.128-.1c.064,0,.1.064.128.16A2.723,2.723,0,0,0,103.072-.32Zm-7.52-1.344c-2.144,0-3.424-1.344-3.424-2.688,0-2.24,2.656-2.88,7.68-3.68h.1c.224,0,.32.1.32.352v.416C100.224-2.336,97.184-1.664,95.552-1.664Zm21.6-7.04c-1.44.032-3.04.032-4.608.032s-3.072,0-4.352-.032h-.032a.931.931,0,0,0-.96.992.922.922,0,0,0,1.056.992c1.28-.032,2.3-.064,3.456-.064,1.376,0,2.976.032,5.44.064a.964.964,0,0,0,1.024-.992.939.939,0,0,0-.992-.992ZM122.08-2.24a.889.889,0,0,0-.928.928.876.876,0,0,0,1.024.928c1.056-.064,2.592-.064,4.224-.064,2.176,0,4.7.032,7.04.064h.128c3.424,0,4.128-1.984,4.96-4.48a1.017,1.017,0,0,0,.064-.416.949.949,0,0,0-.992-.96.941.941,0,0,0-.928.7,14.67,14.67,0,0,1-.864,2.112,2.423,2.423,0,0,1-2.368,1.28c-1.248.032-3.84.032-5.44.032-1.632,0-1.984,0-1.984-.736,0-1.984-.032-5.376-.032-8.832,0-3.488.032-7.04.064-9.344a.547.547,0,0,1,.576-.608c.512,0,.8,0,1.28.032h.064a.91.91,0,0,0,.96-.9.916.916,0,0,0-1.024-.928c-1.024.032-2.144.064-3.232.064-.9,0-1.792-.032-2.528-.064h-.064a.91.91,0,0,0-.96.9.931.931,0,0,0,1.024.928c.416,0,.736-.032,1.28-.032a.545.545,0,0,1,.608.576v4.608c0,4.736-.032,10.5-.064,13.6a.636.636,0,0,1-.608.64c-.512,0-.832-.032-1.248-.032Zm26.3,2.272a7.27,7.27,0,0,0,7.456-7.68,7.334,7.334,0,0,0-7.456-7.648,7.283,7.283,0,0,0-7.392,7.648C140.992-3.04,144.128.032,148.384.032Zm0-1.7c-3.072,0-5.536-2.4-5.536-5.984,0-3.616,2.464-5.984,5.536-5.984s5.568,2.368,5.568,5.984C153.952-4.064,151.456-1.664,148.384-1.664ZM172,.48c-.032,4.288-2.848,5.92-5.632,5.92a6.416,6.416,0,0,1-4.544-1.728.905.905,0,0,0-.64-.288,1.087,1.087,0,0,0-1.056,1.056c0,1.312,3.648,2.752,6.112,2.752,3.872,0,7.52-2.432,7.552-7.744,0-1.7-.032-5.44-.032-8.384,0-1.44,0-2.72.032-3.392.032-1.28.512-1.76,1.152-1.792h.576a.81.81,0,0,0,.768-.9c0-.736-.448-.96-1.344-.96a2.531,2.531,0,0,0-2.72,2.272c-.032.256-.064.352-.1.352a4.523,4.523,0,0,1-.32-.448,6.772,6.772,0,0,0-5.28-2.464c-4.16,0-7.3,3.1-7.3,7.616,0,4.576,3.1,7.616,7.264,7.616a6.734,6.734,0,0,0,5.216-2.528c.128-.192.224-.288.256-.288s.032.1.032.384Zm-5.44-2.24c-3.2,0-5.44-2.24-5.44-5.888s2.24-5.92,5.472-5.92c3.136,0,5.408,2.272,5.408,5.92C172-4.064,169.568-1.76,166.56-1.76Z" transform="translate(-1.728 23.425)" fill="#212529"/>
</svg>
